<?xml version="1.0" encoding="UTF-8"?>
<!DOCTYPE svg PUBLIC "-//W3C//DTD SVG 1.1//EN" "http://www.w3.org/Graphics/SVG/1.1/DTD/svg11.dtd">
<svg version="1.1" xmlns="http://www.w3.org/2000/svg" xmlns:xlink="http://www.w3.org/1999/xlink" x="0" y="0" width="159.119" height="55.302" viewBox="0, 0, 159.119, 55.302">
  <g id="Layer_1" transform="translate(-1, -82.698)">
    <path d="M144.058,97.011 C142.988,97.011 142.538,97.981 142.468,98.684 L145.479,98.684 C145.493,98.052 145.211,97.011 144.058,97.011 z M76.748,100.766 C76.748,101.442 77.185,101.753 77.732,101.753 C78.437,101.753 78.929,101.302 79.098,100.809 C79.14,100.683 79.14,100.556 79.14,100.429 L79.14,99.487 C77.916,99.473 76.748,99.725 76.748,100.766 z M110.051,97.081 C108.826,97.081 108.334,98.276 108.334,99.416 C108.334,100.739 108.995,101.738 110.037,101.738 C111.021,101.738 111.711,100.781 111.711,99.388 C111.711,98.319 111.232,97.081 110.051,97.081 z M98.424,97.011 C97.355,97.011 96.904,97.981 96.834,98.684 L99.845,98.684 C99.858,98.052 99.577,97.011 98.424,97.011 z M85.967,97.178 C85.264,97.178 84.616,97.686 84.434,98.445 C84.404,98.572 84.376,98.726 84.376,98.895 L84.376,100.007 C84.376,100.147 84.391,100.289 84.419,100.416 C84.602,101.118 85.207,101.626 85.952,101.626 C87.036,101.626 87.697,100.766 87.697,99.375 C87.697,98.165 87.12,97.178 85.967,97.178 z M147.067,119.557 L138.197,119.557 C138.232,120.869 138.661,121.869 139.485,122.561 C140.231,123.183 141.197,123.494 142.385,123.494 C143.701,123.494 144.893,123.285 145.971,122.859 L146.436,124.915 C145.182,125.467 143.691,125.734 141.972,125.734 C139.914,125.734 138.294,125.131 137.117,123.918 C135.941,122.705 135.348,121.076 135.348,119.034 C135.348,117.023 135.898,115.357 136.99,114.019 C138.145,112.598 139.696,111.888 141.645,111.888 C143.567,111.888 145.016,112.598 145.998,114.019 C146.78,115.154 147.175,116.552 147.175,118.213 C147.175,118.738 147.137,119.185 147.067,119.557 z M134.866,98.726 L134.866,102.835 L133.137,102.835 L133.137,92.846 L134.866,92.846 L134.866,96.912 L134.895,96.912 C135.105,96.589 135.401,96.321 135.753,96.138 C136.104,95.94 136.513,95.829 136.949,95.829 C138.117,95.829 139.342,96.602 139.342,98.798 L139.342,102.835 L137.61,102.835 L137.61,98.98 C137.61,97.995 137.244,97.235 136.288,97.235 C135.612,97.235 135.134,97.686 134.938,98.206 C134.881,98.361 134.866,98.544 134.866,98.726 z M134.418,114.787 C134.127,114.734 133.813,114.712 133.487,114.712 C132.447,114.712 131.646,115.104 131.079,115.887 C130.585,116.582 130.34,117.445 130.34,118.512 L130.34,125.491 L127.384,125.491 L127.384,116.372 C127.384,114.848 127.357,113.451 127.305,112.187 L129.877,112.187 L129.987,114.734 L130.068,114.734 C130.377,113.861 130.867,113.156 131.546,112.631 C132.203,112.151 132.918,111.921 133.684,111.921 C133.955,111.921 134.203,111.935 134.418,111.971 L134.418,114.787 z M126.83,95.983 L127.801,95.983 L127.801,94.702 L129.504,94.223 L129.504,95.983 L131.149,95.983 L131.149,97.277 L129.504,97.277 L129.504,100.303 C129.504,101.147 129.729,101.569 130.39,101.569 C130.699,101.569 130.868,101.555 131.065,101.499 L131.094,102.808 C130.84,102.905 130.376,102.991 129.842,102.991 C129.194,102.991 128.673,102.779 128.35,102.428 C127.97,102.034 127.801,101.4 127.801,100.5 L127.801,97.277 L126.83,97.277 L126.83,95.983 z M123.775,123.771 C122.549,125.118 120.925,125.792 118.904,125.792 C116.948,125.792 115.388,125.145 114.23,123.849 C113.073,122.557 112.496,120.917 112.496,118.949 C112.496,116.889 113.092,115.199 114.287,113.887 C115.484,112.568 117.09,111.92 119.115,111.92 C121.075,111.92 122.643,112.561 123.829,113.863 C124.957,115.115 125.523,116.744 125.523,118.731 C125.523,120.781 124.943,122.453 123.775,123.771 z M109.98,102.991 C108.053,102.991 106.547,101.667 106.547,99.459 C106.547,97.208 108.024,95.829 110.093,95.829 C112.133,95.829 113.498,97.264 113.498,99.346 C113.498,101.865 111.725,102.991 109.98,102.991 z M111.647,114.402 L108.385,114.402 L108.385,120.869 C108.385,122.51 108.964,123.324 110.114,123.324 C110.643,123.324 111.077,123.285 111.427,123.195 L111.511,125.434 C110.926,125.653 110.161,125.764 109.212,125.764 C108.05,125.764 107.131,125.413 106.476,124.696 C105.813,123.988 105.486,122.791 105.486,121.112 L105.486,114.402 L103.545,114.402 L103.545,112.187 L105.486,112.187 L105.486,109.753 L108.385,108.877 L108.385,112.187 L111.647,112.187 L111.647,114.402 z M101.226,124.148 C100.019,125.226 98.346,125.762 96.199,125.762 C94.21,125.762 92.619,125.377 91.418,124.614 L92.105,122.151 C93.399,122.914 94.821,123.301 96.369,123.301 C97.487,123.301 98.352,123.047 98.973,122.549 C99.59,122.049 99.9,121.379 99.9,120.529 C99.9,119.791 99.645,119.161 99.137,118.647 C98.621,118.137 97.779,117.666 96.592,117.224 C93.365,116.023 91.749,114.262 91.749,111.945 C91.749,110.431 92.313,109.186 93.455,108.22 C94.596,107.255 96.105,106.77 97.987,106.77 C99.665,106.77 101.062,107.064 102.177,107.644 L101.431,110.054 C100.391,109.49 99.209,109.204 97.891,109.204 C96.849,109.204 96.031,109.469 95.443,109.968 C94.952,110.431 94.705,110.987 94.705,111.642 C94.705,112.367 94.988,112.972 95.553,113.453 C96.047,113.889 96.941,114.361 98.232,114.871 C99.825,115.505 100.989,116.258 101.74,117.118 C102.486,117.975 102.862,119.041 102.862,120.316 C102.862,121.887 102.313,123.168 101.226,124.148 z M86.347,102.991 C85.46,102.991 84.672,102.653 84.18,101.808 L84.151,101.808 L84.067,102.835 L82.59,102.835 C82.618,102.371 82.647,101.612 82.647,100.907 L82.647,92.846 L84.376,92.846 L84.376,96.926 L84.404,96.926 C84.826,96.264 85.572,95.829 86.6,95.829 C88.274,95.829 89.47,97.221 89.456,99.303 C89.456,101.766 87.895,102.991 86.347,102.991 z M84.316,124.045 C83.215,125.208 81.851,125.792 80.216,125.792 C78.455,125.792 77.189,125.164 76.421,123.9 L76.421,130.887 L73.464,130.887 L73.464,116.559 C73.464,115.137 73.426,113.682 73.355,112.187 L75.948,112.187 L76.119,114.295 L76.17,114.295 C77.162,112.713 78.653,111.92 80.66,111.92 C82.23,111.92 83.54,112.535 84.589,113.779 C85.641,115.017 86.164,116.654 86.164,118.678 C86.164,120.947 85.55,122.728 84.316,124.045 z M71.048,92.846 L72.778,92.846 L72.778,102.835 L71.048,102.835 z M69.701,124.045 C68.603,125.208 67.232,125.792 65.602,125.792 C63.836,125.792 62.572,125.164 61.804,123.9 L61.804,130.887 L58.85,130.887 L58.85,116.559 C58.85,115.137 58.812,113.682 58.736,112.187 L61.337,112.187 L61.5,114.295 L61.552,114.295 C62.542,112.713 64.036,111.92 66.046,111.92 C67.615,111.92 68.921,112.535 69.977,113.779 C71.022,115.017 71.549,116.654 71.549,118.678 C71.549,120.947 70.935,122.728 69.701,124.045 z M58.127,100.95 C58.127,99.233 59.66,98.346 62.193,98.361 L62.193,98.249 C62.193,97.799 62.01,97.052 60.8,97.052 C60.124,97.052 59.422,97.264 58.957,97.559 L58.619,96.433 C59.125,96.124 60.012,95.829 61.096,95.829 C63.29,95.829 63.924,97.221 63.924,98.726 L63.924,101.189 C63.924,101.808 63.951,102.413 64.036,102.835 L62.474,102.835 L62.348,102.076 L62.306,102.076 C61.897,102.61 61.18,102.991 60.279,102.991 C58.9,102.991 58.127,101.991 58.127,100.95 z M54.564,102.835 L52.861,102.835 L50.314,95.983 L52.187,95.983 L53.297,99.459 C53.494,100.063 53.635,100.612 53.762,101.176 L53.805,101.176 C53.931,100.612 54.086,100.077 54.269,99.459 L55.366,95.983 L57.182,95.983 L54.564,102.835 z M53.893,125.491 L52.17,120.076 L46.174,120.076 L44.529,125.491 L41.467,125.491 L47.401,107.043 L51.073,107.043 L57.043,125.491 L53.893,125.491 z M33.004,124.798 C33.004,126.469 31.642,127.823 29.972,127.823 L16.977,127.823 C15.305,127.823 13.942,126.469 13.942,124.798 L13.942,95.921 C13.942,94.25 15.305,92.891 16.977,92.891 L29.972,92.891 C31.642,92.891 33.004,94.25 33.004,95.921 L33.004,124.798 z M44.528,93.352 L46.737,93.352 L49.818,102.835 L47.947,102.835 L47.09,100.147 L44.092,100.147 L43.275,102.835 L41.488,102.835 L44.528,93.352 z M66.601,95.983 L68.33,95.983 L68.33,102.835 L66.601,102.835 z M67.473,93.127 C68.063,93.127 68.43,93.536 68.443,94.069 C68.443,94.576 68.063,94.999 67.458,94.999 C66.881,94.999 66.502,94.576 66.502,94.069 C66.502,93.536 66.896,93.127 67.473,93.127 z M77.705,97.052 C77.029,97.052 76.326,97.264 75.862,97.559 L75.524,96.433 C76.03,96.124 76.917,95.829 78,95.829 C80.195,95.829 80.829,97.221 80.829,98.726 L80.829,101.189 C80.829,101.808 80.856,102.413 80.94,102.835 L79.379,102.835 L79.253,102.076 L79.211,102.076 C78.803,102.61 78.085,102.991 77.185,102.991 C75.805,102.991 75.031,101.991 75.031,100.95 C75.031,99.233 76.564,98.346 79.098,98.361 L79.098,98.249 C79.098,97.799 78.914,97.052 77.705,97.052 z M91.43,92.846 L93.159,92.846 L93.159,102.835 L91.43,102.835 z M98.522,95.829 C100.745,95.829 101.478,97.657 101.478,99.163 C101.478,99.487 101.449,99.741 101.421,99.895 L96.834,99.895 C96.876,101.133 97.833,101.667 98.944,101.667 C99.746,101.667 100.309,101.542 100.844,101.358 L101.097,102.54 C100.506,102.793 99.69,102.975 98.705,102.975 C96.482,102.975 95.174,101.612 95.174,99.515 C95.174,97.615 96.327,95.829 98.522,95.829 z M116.695,95.983 L116.779,97.011 L116.822,97.011 C117.131,96.475 117.877,95.829 119.017,95.829 C120.213,95.829 121.451,96.602 121.451,98.768 L121.451,102.835 L119.721,102.835 L119.721,98.966 C119.721,97.981 119.354,97.235 118.412,97.235 C117.723,97.235 117.244,97.727 117.06,98.249 C117.004,98.389 116.976,98.6 116.976,98.798 L116.976,102.835 L115.246,102.835 L115.246,98.024 C115.246,97.235 115.218,96.575 115.189,95.983 L116.695,95.983 z M144.156,95.829 C146.379,95.829 147.111,97.657 147.111,99.163 C147.111,99.487 147.083,99.741 147.055,99.895 L142.468,99.895 C142.51,101.133 143.467,101.667 144.578,101.667 C145.38,101.667 145.943,101.542 146.477,101.358 L146.73,102.54 C146.14,102.793 145.324,102.975 144.339,102.975 C142.116,102.975 140.808,101.612 140.808,99.515 C140.808,97.615 141.961,95.829 144.156,95.829 z M153.395,82.698 L7.724,82.698 C4.017,82.698 1,85.714 1,89.423 L1,131.285 C1,134.988 4.017,138 7.724,138 L153.395,138 C157.102,138 160.119,134.988 160.119,131.285 L160.119,89.423 C160.119,85.714 157.102,82.698 153.395,82.698 z M46.063,96.504 C45.879,95.927 45.725,95.28 45.584,94.731 L45.555,94.731 C45.415,95.28 45.26,95.94 45.105,96.504 L44.374,98.84 L46.808,98.84 L46.063,96.504 z M62.193,100.809 C62.234,100.683 62.234,100.556 62.234,100.429 L62.234,99.487 C61.011,99.473 59.844,99.725 59.844,100.766 C59.844,101.442 60.279,101.753 60.828,101.753 C61.531,101.753 62.023,101.302 62.193,100.809 z M141.427,113.937 C140.462,113.937 139.678,114.349 139.073,115.147 C138.581,115.784 138.286,116.552 138.197,117.441 L144.355,117.441 C144.371,116.568 144.184,115.814 143.783,115.172 C143.27,114.354 142.483,113.937 141.427,113.937 z M49.156,109.507 L49.105,109.507 C48.919,110.292 48.631,111.448 48.226,112.983 L46.692,117.802 L51.646,117.802 L50.092,112.983 C49.924,112.488 49.61,111.329 49.156,109.507 z M79.703,114.266 C78.971,114.266 78.316,114.506 77.721,114.989 C77.128,115.479 76.738,116.113 76.555,116.898 C76.464,117.266 76.421,117.564 76.421,117.803 L76.421,120.017 C76.421,120.986 76.713,121.805 77.309,122.471 C77.9,123.131 78.673,123.466 79.617,123.466 C80.736,123.466 81.602,123.04 82.223,122.18 C82.845,121.322 83.156,120.191 83.156,118.782 C83.156,117.49 82.862,116.421 82.28,115.584 C81.637,114.712 80.778,114.266 79.703,114.266 z M119.007,114.082 C117.824,114.082 116.92,114.607 116.303,115.664 C115.768,116.534 115.506,117.596 115.506,118.852 C115.506,120.076 115.768,121.12 116.303,121.992 C116.935,123.047 117.83,123.572 118.985,123.572 C120.109,123.572 120.998,123.04 121.633,121.959 C122.184,121.076 122.459,120.017 122.459,118.801 C122.459,117.584 122.195,116.534 121.669,115.664 C121.04,114.607 120.158,114.082 119.007,114.082 z M65.084,114.266 C64.355,114.266 63.697,114.506 63.103,114.989 C62.508,115.479 62.122,116.113 61.938,116.898 C61.849,117.266 61.804,117.564 61.804,117.803 L61.804,120.017 C61.804,120.986 62.095,121.805 62.691,122.471 C63.283,123.131 64.056,123.466 65.003,123.466 C66.113,123.466 66.986,123.04 67.605,122.18 C68.226,121.322 68.533,120.191 68.533,118.782 C68.533,117.49 68.245,116.421 67.66,115.584 C67.019,114.712 66.162,114.266 65.084,114.266 z M15.785,121.733 L31.161,121.733 L31.161,98.993 L15.785,98.993 z M23.472,123.076 C22.609,123.076 21.906,123.781 21.906,124.646 C21.906,125.51 22.609,126.213 23.472,126.213 C24.338,126.213 25.039,125.51 25.039,124.646 C25.039,123.781 24.338,123.076 23.472,123.076 z M21.966,96.673 L24.979,96.673 C25.176,96.673 25.337,96.511 25.337,96.321 C25.337,96.122 25.176,95.961 24.979,95.961 L21.966,95.961 C21.774,95.961 21.61,96.122 21.61,96.321 C21.61,96.511 21.774,96.673 21.966,96.673" fill="#FFFFFF"/>
  </g>
</svg>
