<?xml version="1.0" encoding="utf-8"?>
<!-- Generator: Adobe Illustrator 19.1.0, SVG Export Plug-In . SVG Version: 6.00 Build 0)  -->
<svg version="1.1" id="Layer_1" xmlns="http://www.w3.org/2000/svg" xmlns:xlink="http://www.w3.org/1999/xlink" x="0px" y="0px"
	 viewBox="0 0 882.3 398.7" style="enable-background:new 0 0 882.3 398.7;" xml:space="preserve">
<style type="text/css">
	.st0{opacity:0.9;fill:url(#SVGID_1_);}
</style>
<radialGradient id="SVGID_1_" cx="447.1272" cy="19.3483" r="490.4908" gradientTransform="matrix(1 0 0 0.7351 0 5.1261)" gradientUnits="userSpaceOnUse">
	<stop  offset="0" style="stop-color:#FFFFFF"/>
	<stop  offset="0.319" style="stop-color:#FFFFFF;stop-opacity:0.4914"/>
	<stop  offset="1" style="stop-color:#FFFFFF;stop-opacity:0"/>
</radialGradient>
<path class="st0" d="M0,398.7V158.2C0,93.2,52.7,40.4,117.8,40.4c45.2,0,84.5,25.5,104.2,63c13.1-14.8,32.3-24.1,53.6-24.1
	c13.8,0,26.8,3.9,37.7,10.7c1-35.8,30.4-64.6,66.5-64.6c28.9,0,53.5,18.4,62.7,44.2c4.8-18.7,21.8-32.6,42-32.6
	c9.2,0,17.8,2.9,24.8,7.8c9-26,33.8-44.8,62.9-44.8c36.8,0,66.5,29.8,66.5,66.5c0,4.3-0.4,8.6-1.2,12.7c36.2,0,67.3,21.4,81.6,52.1
	c8.9-36.1,41.5-63,80.4-63c45.7,0,82.8,37,82.8,82.8v247.5"/>
</svg>
