<?xml version="1.0" encoding="utf-8"?>
<!-- Generator: Adobe Illustrator 19.2.0, SVG Export Plug-In . SVG Version: 6.00 Build 0)  -->
<svg version="1.1" id="Layer_1" xmlns="http://www.w3.org/2000/svg" xmlns:xlink="http://www.w3.org/1999/xlink" x="0px" y="0px"
	 viewBox="0 0 2627.1 908" style="enable-background:new 0 0 2627.1 908;" xml:space="preserve">
<style type="text/css">
	.st0{opacity:0.6;fill:url(#SVGID_1_);enable-background:new    ;}
</style>
<linearGradient id="SVGID_1_" gradientUnits="userSpaceOnUse" x1="212.6089" y1="-585.3891" x2="2373.9419" y2="818.1967" gradientTransform="matrix(1 0 0 -1 0 650)">
	<stop  offset="0" style="stop-color:#FFFFFF;stop-opacity:0"/>
	<stop  offset="8.966903e-002" style="stop-color:#F2FBFF;stop-opacity:8.966903e-002"/>
	<stop  offset="0.2558" style="stop-color:#D0F0FF;stop-opacity:0.2558"/>
	<stop  offset="0.4802" style="stop-color:#98DFFF;stop-opacity:0.4802"/>
	<stop  offset="0.7509" style="stop-color:#4CC7FF;stop-opacity:0.7509"/>
	<stop  offset="1" style="stop-color:#00AFFF"/>
</linearGradient>
<path class="st0" d="M2627.1,260c0-66.9-50-121.1-111.8-121.1c-51.7,0-95.2,37.9-107.9,89.5c-20.7-30.5-54-50.3-91.7-50.3
	c-28.7,0-54.9,11.5-75,30.5C2239.1,113,2167.1,36,2078.4,36c-71.8,0-132.5,50.4-154,120.1c-26.8-43.5-72.5-72.2-124.5-72.2
	c-65.2,0-120.6,45.2-141,108.4c0.6-6.3,1-12.7,1-19.2C1660,77.6,1588.5,0,1500.2,0c-83.8,0-152.4,69.7-159.1,158.5
	c-19.5-44.2-61-74.8-109.2-74.8c-49.9,0-92.7,32.6-111.2,79.4C1109.7,87.2,1049.1,29,976.1,29c-56.4,0-105.4,34.6-129.8,85.3
	c-20.2-35.6-56.4-59.5-97.6-59.5c-49.4,0-91.4,34-107.2,81.6c-16.7-16.4-38.7-26.3-63-26.3c-21.6,0-41.5,8-57.3,21.1
	c-26.9-56.7-81.4-95.4-144.4-95.4c-70.6,0-130.7,48.9-152.9,117.1c-18.2-44.2-59.2-75-106.9-75C52.4,78,0,134.7,0,204.7V908h2627.1
	V260z"/>
</svg>
