<?xml version="1.0" encoding="UTF-8"?>
<!DOCTYPE svg PUBLIC "-//W3C//DTD SVG 1.1//EN" "http://www.w3.org/Graphics/SVG/1.1/DTD/svg11.dtd">
<svg version="1.1" xmlns="http://www.w3.org/2000/svg" xmlns:xlink="http://www.w3.org/1999/xlink" x="0" y="0" width="168.909" height="55.252" viewBox="0, 0, 168.909, 55.252">
  <g id="Layer_1" transform="translate(-172.563, -82.526)">
    <path d="M245.605,94.478 C245.259,94.478 244.966,94.633 244.725,94.943 C244.484,95.253 244.363,95.644 244.363,96.117 C244.363,96.609 244.49,97.01 244.745,97.318 C244.999,97.627 245.31,97.781 245.679,97.781 C246.025,97.781 246.318,97.626 246.559,97.315 C246.8,97.004 246.921,96.613 246.921,96.142 C246.921,95.648 246.794,95.247 246.541,94.94 C246.288,94.632 245.976,94.478 245.605,94.478" fill="#FFFFFF"/>
    <path d="M252.469,94.503 C252.367,94.503 252.227,94.514 252.05,94.535 C252.074,95.008 252.086,95.503 252.086,96.018 C252.086,96.583 252.097,97.144 252.121,97.7 C252.275,97.73 252.428,97.746 252.582,97.746 C253.091,97.746 253.467,97.588 253.712,97.272 C253.957,96.956 254.079,96.571 254.079,96.117 C254.079,95.663 253.947,95.281 253.682,94.97 C253.417,94.659 253.013,94.503 252.469,94.503" fill="#FFFFFF"/>
    <path d="M264.084,94.461 C263.916,94.461 263.739,94.478 263.552,94.514 C263.578,94.961 263.591,95.467 263.591,96.032 C263.65,96.037 263.719,96.039 263.797,96.039 C264.66,96.039 265.092,95.766 265.092,95.22 C265.092,94.714 264.756,94.461 264.084,94.461" fill="#FFFFFF"/>
    <path d="M259.566,94.45 C259.566,94.542 259.357,95.202 258.939,96.43 L260.23,96.43 C259.826,95.209 259.623,94.549 259.623,94.45 L259.566,94.45" fill="#FFFFFF"/>
    <path d="M226.056,94.45 C226.056,94.542 225.846,95.202 225.428,96.43 L226.719,96.43 C226.315,95.209 226.112,94.549 226.112,94.45 L226.056,94.45" fill="#FFFFFF"/>
    <path d="M240.576,94.464 C240.354,94.464 240.158,94.481 239.988,94.514 C240.014,94.881 240.027,95.358 240.027,95.947 C240.157,95.952 240.267,95.954 240.357,95.954 C241.109,95.954 241.485,95.693 241.485,95.17 C241.485,94.7 241.182,94.464 240.576,94.464" fill="#FFFFFF"/>
    <path d="M235.495,94.503 C235.393,94.503 235.254,94.514 235.076,94.535 C235.1,95.008 235.112,95.503 235.112,96.018 C235.112,96.583 235.124,97.144 235.147,97.7 C235.301,97.73 235.455,97.746 235.608,97.746 C236.117,97.746 236.494,97.588 236.738,97.272 C236.983,96.956 237.105,96.571 237.105,96.117 C237.105,95.663 236.973,95.281 236.708,94.97 C236.443,94.659 236.039,94.503 235.495,94.503" fill="#FFFFFF"/>
    <path d="M274.923,94.478 C274.577,94.478 274.284,94.633 274.043,94.943 C273.802,95.253 273.681,95.644 273.681,96.117 C273.681,96.609 273.808,97.01 274.063,97.318 C274.317,97.627 274.628,97.781 274.997,97.781 C275.343,97.781 275.636,97.626 275.877,97.315 C276.118,97.004 276.239,96.613 276.239,96.142 C276.239,95.648 276.112,95.247 275.859,94.94 C275.606,94.632 275.294,94.478 274.923,94.478" fill="#FFFFFF"/>
    <path d="M268.339,94.461 C268.171,94.461 267.993,94.478 267.807,94.514 C267.833,94.961 267.846,95.467 267.846,96.032 C267.905,96.037 267.973,96.039 268.052,96.039 C268.915,96.039 269.346,95.766 269.346,95.22 C269.346,94.714 269.011,94.461 268.339,94.461" fill="#FFFFFF"/>
    <path d="M259.09,111.1 C258.096,111.1 257.236,111.471 256.511,112.212 C255.784,112.954 255.422,113.935 255.422,115.158 C255.422,116.381 255.784,117.362 256.511,118.103 C257.236,118.845 258.096,119.216 259.09,119.216 C260.083,119.216 260.942,118.845 261.669,118.103 C262.395,117.362 262.758,116.381 262.758,115.158 C262.758,113.935 262.395,112.954 261.669,112.212 C260.942,111.471 260.083,111.1 259.09,111.1" fill="#FFFFFF"/>
    <path d="M246.825,111.1 C245.831,111.1 244.972,111.471 244.246,112.212 C243.52,112.954 243.157,113.935 243.157,115.158 C243.157,116.381 243.52,117.362 244.246,118.103 C244.972,118.845 245.831,119.216 246.825,119.216 C247.818,119.216 248.678,118.845 249.404,118.103 C250.13,117.362 250.493,116.381 250.493,115.158 C250.493,113.935 250.13,112.954 249.404,112.212 C248.678,111.471 247.818,111.1 246.825,111.1" fill="#FFFFFF"/>
    <path d="M305.029,106.378 L301.499,106.378 L301.499,112.109 L305.029,112.109 C305.915,112.109 306.626,111.81 307.161,111.215 C307.696,110.619 307.964,109.962 307.964,109.243 C307.964,108.525 307.696,107.868 307.161,107.272 C306.626,106.676 305.915,106.378 305.029,106.378" fill="#FFFFFF"/>
    <path d="M317.82,115.868 C317.301,116.312 317.041,116.831 317.041,117.428 C317.041,117.977 317.277,118.413 317.752,118.734 C318.225,119.055 318.768,119.216 319.379,119.216 C320.25,119.216 321.041,118.891 321.752,118.241 C322.463,117.592 322.817,116.824 322.817,115.937 C322.222,115.448 321.328,115.204 320.136,115.204 C319.111,115.204 318.34,115.426 317.82,115.868" fill="#FFFFFF"/>
    <path d="M287.652,111.1 C286.873,111.1 286.197,111.345 285.624,111.834 C285.051,112.323 284.657,112.98 284.443,113.806 L290.954,113.806 C290.908,113.163 290.613,112.553 290.071,111.972 C289.528,111.391 288.722,111.1 287.652,111.1" fill="#FFFFFF"/>
    <path d="M271.263,110.938 C270.284,110.938 269.443,111.309 268.741,112.05 C268.038,112.792 267.686,113.773 267.686,114.996 C267.686,116.219 268.038,117.2 268.741,117.941 C269.443,118.683 270.284,119.054 271.263,119.054 C272.256,119.054 273.101,118.687 273.796,117.953 C274.491,117.22 274.839,116.233 274.839,114.996 C274.839,113.758 274.491,112.772 273.796,112.039 C273.101,111.305 272.256,110.938 271.263,110.938" fill="#FFFFFF"/>
    <path d="M329.421,125.528 L327.243,125.528 L329.857,119.866 L325.227,109.344 L327.518,109.344 L330.865,117.414 L330.911,117.414 L334.167,109.344 L336.458,109.344 L329.421,125.528 z M324.835,120.577 L322.818,120.577 L322.818,119.019 L322.727,119.019 C321.887,120.302 320.655,120.944 319.035,120.944 C317.844,120.944 316.846,120.6 316.044,119.912 C315.241,119.225 314.84,118.316 314.84,117.185 C314.84,115.962 315.313,115.003 316.262,114.308 C317.21,113.612 318.378,113.265 319.77,113.265 C321.007,113.265 322.023,113.493 322.818,113.952 L322.818,113.631 C322.818,112.806 322.535,112.145 321.97,111.649 C321.404,111.152 320.71,110.903 319.884,110.903 C319.272,110.903 318.719,111.049 318.223,111.339 C317.725,111.629 317.385,112.027 317.201,112.53 L315.275,111.705 C315.535,111.033 316.047,110.41 316.811,109.837 C317.576,109.264 318.585,108.978 319.839,108.978 C321.275,108.978 322.466,109.399 323.414,110.238 C324.361,111.079 324.835,112.264 324.835,113.792 L324.835,120.577 z M311.495,104.163 L313.603,104.163 L313.603,120.577 L311.495,120.577 z M308.594,112.542 C307.577,113.467 306.374,113.929 304.983,113.929 L301.499,113.929 L301.499,120.577 L299.391,120.577 L299.391,104.163 L304.983,104.163 C306.374,104.163 307.577,104.626 308.594,105.55 C309.611,106.476 310.118,107.641 310.118,109.046 C310.118,110.452 309.611,111.618 308.594,112.542 z M293.178,115.351 L284.306,115.351 C284.366,116.482 284.745,117.376 285.44,118.032 C286.137,118.69 286.949,119.019 287.882,119.019 C289.395,119.019 290.419,118.376 290.954,117.093 L292.833,117.872 C292.467,118.743 291.862,119.474 291.022,120.062 C290.182,120.65 289.15,120.944 287.928,120.944 C286.232,120.944 284.852,120.379 283.79,119.247 C282.728,118.117 282.197,116.688 282.197,114.961 C282.197,113.325 282.712,111.92 283.745,110.742 C284.775,109.567 286.094,108.978 287.698,108.978 C289.365,108.978 290.697,109.521 291.698,110.606 C292.699,111.691 293.201,113.143 293.201,114.961 L293.178,115.351 z M282.026,98.237 L281.15,98.237 C281.15,98.14 280.826,97.628 280.176,96.701 C279.493,95.724 279.105,95.056 279.012,94.697 L278.954,94.697 C279.013,95.214 279.043,95.683 279.043,96.101 C279.043,96.686 279.059,97.397 279.094,98.237 L278.22,98.237 C278.255,97.504 278.273,96.699 278.273,95.821 C278.273,94.958 278.255,94.224 278.22,93.618 L279.273,93.618 C279.273,93.744 279.566,94.244 280.15,95.119 C280.772,96.048 281.129,96.678 281.221,97.009 L281.275,97.009 C281.217,96.482 281.189,96.009 281.189,95.59 C281.189,94.95 281.173,94.292 281.139,93.618 L282.026,93.618 C281.993,94.205 281.977,94.939 281.977,95.821 C281.977,96.71 281.993,97.516 282.026,98.237 z M278.852,104.163 L280.96,104.163 L280.96,120.577 L278.852,120.577 z M276.551,97.648 C276.107,98.126 275.556,98.365 274.901,98.365 C274.277,98.365 273.754,98.145 273.333,97.707 C272.913,97.268 272.702,96.71 272.702,96.034 C272.702,95.308 272.924,94.706 273.37,94.228 C273.814,93.751 274.363,93.512 275.018,93.512 C275.643,93.512 276.167,93.731 276.586,94.168 C277.007,94.606 277.219,95.164 277.219,95.842 C277.219,96.568 276.996,97.17 276.551,97.648 z M276.857,120.004 C276.857,121.93 276.298,123.393 275.184,124.395 C274.068,125.395 272.707,125.896 271.103,125.896 C269.772,125.896 268.688,125.564 267.848,124.899 C267.007,124.234 266.402,123.473 266.036,122.617 L267.962,121.816 C268.176,122.426 268.569,122.939 269.143,123.351 C269.715,123.764 270.368,123.97 271.103,123.97 C272.264,123.97 273.177,123.622 273.842,122.927 C274.507,122.232 274.839,121.288 274.839,120.096 L274.839,119.019 L274.747,119.019 C274.38,119.569 273.861,120.027 273.188,120.394 C272.516,120.761 271.759,120.944 270.919,120.944 C269.467,120.944 268.214,120.371 267.159,119.225 C266.104,118.078 265.577,116.657 265.577,114.961 C265.577,113.265 266.104,111.843 267.159,110.696 C268.214,109.551 269.467,108.978 270.919,108.978 C271.759,108.978 272.516,109.161 273.188,109.527 C273.861,109.895 274.38,110.353 274.747,110.903 L274.839,110.903 L274.839,109.344 L276.857,109.344 L276.857,120.004 z M263.832,96.484 C263.721,96.484 263.642,96.482 263.595,96.477 C263.595,96.922 263.608,97.509 263.634,98.237 L262.637,98.237 C262.667,97.554 262.684,96.748 262.684,95.821 C262.684,94.97 262.667,94.235 262.637,93.618 L263.254,93.618 C263.341,93.618 263.509,93.615 263.758,93.607 C264.007,93.6 264.221,93.597 264.404,93.597 C264.853,93.597 265.232,93.699 265.542,93.902 C265.852,94.105 266.007,94.414 266.007,94.828 C266.007,95.393 265.797,95.81 265.378,96.08 C264.958,96.35 264.443,96.484 263.832,96.484 z M263.24,119.236 C262.154,120.375 260.77,120.944 259.09,120.944 C257.408,120.944 256.025,120.375 254.94,119.236 C253.855,118.098 253.312,116.673 253.312,114.961 C253.312,113.249 253.855,111.824 254.94,110.686 C256.025,109.547 257.408,108.978 259.09,108.978 C260.77,108.978 262.154,109.547 263.24,110.686 C264.324,111.824 264.866,113.249 264.866,114.961 C264.866,116.673 264.324,118.098 263.24,119.236 z M250.975,119.236 C249.889,120.375 248.506,120.944 246.825,120.944 C245.144,120.944 243.761,120.375 242.676,119.236 C241.591,118.098 241.048,116.673 241.048,114.961 C241.048,113.249 241.591,111.824 242.676,110.686 C243.761,109.547 245.144,108.978 246.825,108.978 C248.506,108.978 249.889,109.547 250.975,110.686 C252.06,111.824 252.602,113.249 252.602,114.961 C252.602,116.673 252.06,118.098 250.975,119.236 z M240.03,96.396 C240.03,97.004 240.041,97.617 240.062,98.237 L239.076,98.237 C239.107,97.523 239.122,96.717 239.122,95.821 C239.122,94.96 239.107,94.226 239.076,93.618 L239.69,93.618 C239.761,93.618 239.909,93.615 240.135,93.607 C240.361,93.6 240.569,93.597 240.761,93.597 C241.846,93.597 242.389,93.968 242.389,94.711 C242.389,95.3 242.079,95.71 241.46,95.942 L241.46,95.995 C241.699,96.061 241.908,96.247 242.088,96.554 C242.267,96.86 242.51,97.421 242.815,98.237 L241.765,98.237 C241.49,97.4 241.28,96.883 241.133,96.687 C240.987,96.49 240.75,96.392 240.424,96.392 C240.287,96.392 240.155,96.393 240.03,96.396 z M238.137,118.514 C236.593,120.134 234.583,120.944 232.107,120.944 C229.738,120.944 227.725,120.123 226.067,118.48 C224.408,116.837 223.58,114.8 223.58,112.37 C223.58,109.941 224.408,107.904 226.067,106.261 C227.725,104.618 229.738,103.797 232.107,103.797 C233.284,103.797 234.407,104.026 235.478,104.485 C236.547,104.943 237.403,105.555 238.045,106.319 L236.601,107.763 C235.516,106.464 234.018,105.814 232.107,105.814 C230.38,105.814 228.887,106.421 227.626,107.637 C226.365,108.852 225.734,110.43 225.734,112.37 C225.734,114.312 226.365,115.889 227.626,117.105 C228.887,118.319 230.38,118.927 232.107,118.927 C233.941,118.927 235.47,118.316 236.692,117.093 C237.487,116.298 237.945,115.19 238.067,113.769 L232.107,113.769 L232.107,111.797 L240.062,111.797 C240.139,112.226 240.177,112.638 240.177,113.035 C240.177,115.327 239.497,117.154 238.137,118.514 z M216.914,113.554 C216.602,113.784 216.258,113.974 215.917,114.162 C213.894,115.281 211.866,116.388 209.847,117.514 C209.575,117.666 209.413,117.659 209.188,117.426 C207.751,115.942 206.301,114.47 204.843,113.006 C204.631,112.793 204.625,112.676 204.843,112.462 C206.541,110.789 208.23,109.107 209.912,107.417 C210.11,107.217 210.252,107.195 210.499,107.335 C212.497,108.467 214.505,109.584 216.508,110.707 C217.128,111.054 217.61,111.503 217.637,112.238 C217.615,112.828 217.336,113.243 216.914,113.554 z M208.196,118.421 C201.505,122.083 194.82,125.756 188.134,129.426 C188.024,129.487 187.921,129.586 187.864,129.623 C193.076,124.355 198.291,119.091 203.491,113.811 C203.813,113.483 203.964,113.527 204.253,113.828 C205.574,115.203 206.914,116.56 208.26,117.91 C208.497,118.148 208.517,118.245 208.196,118.421 z M185.07,129.81 C184.469,129.348 184.239,128.73 184.24,127.993 C184.241,124.888 184.235,121.783 184.233,118.678 C184.232,116.482 184.233,114.287 184.233,112.092 C184.236,112.092 184.239,112.092 184.242,112.092 C184.242,106.849 184.244,101.606 184.239,96.363 C184.239,95.72 184.364,95.133 184.82,94.647 C184.997,94.458 185.124,94.407 185.342,94.629 C188.869,98.228 192.405,101.82 195.941,105.412 C198.23,107.738 200.518,110.065 202.817,112.382 C203.04,112.606 203.06,112.725 202.824,112.96 C197.201,118.55 191.583,124.146 185.981,129.756 C185.638,130.099 185.398,130.063 185.07,129.81 z M187.28,94.332 C194.46,98.356 201.639,102.381 208.824,106.396 C209.154,106.58 209.147,106.683 208.892,106.934 C207.286,108.514 205.693,110.107 204.101,111.701 C203.929,111.873 203.825,111.972 203.594,111.737 C197.882,105.911 192.161,100.094 186.442,94.275 C186.394,94.226 186.354,94.168 186.257,94.048 C186.686,94.044 186.988,94.169 187.28,94.332 z M224.688,95.967 C225.24,94.545 225.516,93.762 225.516,93.618 L226.857,93.618 C226.857,93.753 227.107,94.525 227.608,95.933 C228.108,97.341 228.358,98.109 228.358,98.237 L227.223,98.237 C227.223,98.081 227.115,97.639 226.9,96.91 L225.261,96.91 C225.039,97.627 224.928,98.069 224.928,98.237 L223.86,98.237 C223.86,98.145 224.136,97.388 224.688,95.967 z M229.126,93.618 L230.179,93.618 C230.179,93.744 230.471,94.244 231.056,95.119 C231.678,96.048 232.035,96.678 232.127,97.009 L232.18,97.009 C232.123,96.482 232.095,96.009 232.095,95.59 C232.095,94.95 232.078,94.292 232.045,93.618 L232.932,93.618 C232.899,94.205 232.882,94.939 232.882,95.821 C232.882,96.71 232.899,97.516 232.932,98.237 L232.056,98.237 C232.056,98.14 231.731,97.628 231.08,96.701 C230.399,95.724 230.011,95.056 229.917,94.697 L229.86,94.697 C229.919,95.214 229.949,95.683 229.949,96.101 C229.949,96.686 229.965,97.397 229.998,98.237 L229.126,98.237 C229.161,97.504 229.179,96.699 229.179,95.821 C229.179,94.958 229.161,94.224 229.126,93.618 z M234.172,93.618 L234.793,93.618 C234.894,93.618 235.046,93.615 235.247,93.607 C235.447,93.6 235.579,93.597 235.64,93.597 C236.494,93.597 237.113,93.81 237.497,94.235 C237.882,94.661 238.074,95.172 238.074,95.768 C238.074,96.44 237.859,97.026 237.428,97.527 C236.998,98.029 236.395,98.279 235.619,98.279 C235.269,98.279 234.787,98.265 234.172,98.237 C234.202,97.523 234.218,96.717 234.218,95.821 C234.218,94.96 234.202,94.226 234.172,93.618 z M244.051,94.228 C244.496,93.751 245.045,93.512 245.701,93.512 C246.325,93.512 246.848,93.731 247.269,94.168 C247.689,94.606 247.9,95.164 247.9,95.842 C247.9,96.568 247.678,97.17 247.233,97.648 C246.788,98.126 246.239,98.365 245.584,98.365 C244.959,98.365 244.436,98.145 244.016,97.707 C243.595,97.268 243.384,96.71 243.384,96.034 C243.384,95.308 243.606,94.706 244.051,94.228 z M248.902,93.618 L249.906,93.618 C249.875,94.214 249.86,94.948 249.86,95.821 C249.86,96.713 249.875,97.518 249.906,98.237 L248.902,98.237 C248.933,97.504 248.948,96.699 248.948,95.821 C248.948,94.958 248.933,94.224 248.902,93.618 z M251.145,93.618 L251.766,93.618 C251.868,93.618 252.019,93.615 252.22,93.607 C252.421,93.6 252.553,93.597 252.614,93.597 C253.468,93.597 254.087,93.81 254.471,94.235 C254.855,94.661 255.048,95.172 255.048,95.768 C255.048,96.44 254.832,97.026 254.402,97.527 C253.972,98.029 253.368,98.279 252.593,98.279 C252.243,98.279 251.76,98.265 251.145,98.237 C251.176,97.523 251.192,96.717 251.192,95.821 C251.192,94.96 251.176,94.226 251.145,93.618 z M258.199,95.967 C258.751,94.545 259.027,93.762 259.027,93.618 L260.368,93.618 C260.368,93.753 260.618,94.525 261.118,95.933 C261.62,97.341 261.87,98.109 261.87,98.237 L260.734,98.237 C260.734,98.081 260.626,97.639 260.411,96.91 L258.772,96.91 C258.551,97.627 258.438,98.069 258.438,98.237 L257.371,98.237 C257.371,98.145 257.647,97.388 258.199,95.967 z M266.892,93.618 L267.509,93.618 C267.596,93.618 267.764,93.615 268.012,93.607 C268.262,93.6 268.477,93.597 268.658,93.597 C269.107,93.597 269.487,93.699 269.797,93.902 C270.107,94.105 270.262,94.414 270.262,94.828 C270.262,95.393 270.052,95.81 269.632,96.08 C269.212,96.35 268.697,96.484 268.087,96.484 C267.977,96.484 267.897,96.482 267.849,96.477 C267.849,96.922 267.862,97.509 267.888,98.237 L266.892,98.237 C266.922,97.554 266.938,96.748 266.938,95.821 C266.938,94.97 266.922,94.235 266.892,93.618 z M334.007,82.526 L180.03,82.526 C175.907,82.526 172.563,85.869 172.563,89.993 L172.563,130.311 C172.563,134.434 175.907,137.778 180.03,137.778 L334.007,137.778 C338.13,137.778 341.473,134.434 341.473,130.311 L341.473,89.993 C341.473,85.869 338.13,82.526 334.007,82.526" fill="#FFFFFF"/>
  </g>
</svg>
