<?xml version="1.0" encoding="utf-8"?>
<!-- Generator: Adobe Illustrator 19.1.0, SVG Export Plug-In . SVG Version: 6.00 Build 0)  -->
<svg version="1.1" id="Layer_1" xmlns="http://www.w3.org/2000/svg" xmlns:xlink="http://www.w3.org/1999/xlink" x="0px" y="0px"
	 viewBox="0 0 71.6 71.7" style="enable-background:new 0 0 71.6 71.7;" xml:space="preserve">
<style type="text/css">
	.st0{fill:url(#SVGID_1_);}
	.st1{fill:url(#SVGID_2_);}
	.st2{fill:url(#SVGID_3_);}
	.st3{fill:url(#SVGID_4_);}
	.st4{fill:#FFFFFF;}
</style>
<g>
	<g>
		
			<linearGradient id="SVGID_1_" gradientUnits="userSpaceOnUse" x1="-441.8907" y1="136.2227" x2="-391.7715" y2="136.2227" gradientTransform="matrix(1 0 0 1 461.3208 -107.0767)">
			<stop  offset="0" style="stop-color:#00FF98"/>
			<stop  offset="9.050369e-003" style="stop-color:#00FA96"/>
			<stop  offset="0.1263" style="stop-color:#00C181"/>
			<stop  offset="0.2468" style="stop-color:#008F6E"/>
			<stop  offset="0.368" style="stop-color:#00645D"/>
			<stop  offset="0.4902" style="stop-color:#004150"/>
			<stop  offset="0.6134" style="stop-color:#002646"/>
			<stop  offset="0.7382" style="stop-color:#00133F"/>
			<stop  offset="0.8657" style="stop-color:#00083A"/>
			<stop  offset="1" style="stop-color:#000439"/>
		</linearGradient>
		<polygon class="st0" points="21.6,54.2 19.4,52.1 67.4,4.1 69.5,6.2 		"/>
		
			<linearGradient id="SVGID_2_" gradientUnits="userSpaceOnUse" x1="-439.8477" y1="138.2661" x2="-389.7276" y2="138.2661" gradientTransform="matrix(1 0 0 1 461.3208 -107.0767)">
			<stop  offset="0" style="stop-color:#009FFF"/>
			<stop  offset="1" style="stop-color:#000439"/>
		</linearGradient>
		<polygon class="st1" points="23.6,56.2 21.5,54.1 69.5,6.1 71.6,8.3 		"/>
		
			<linearGradient id="SVGID_3_" gradientUnits="userSpaceOnUse" x1="-445.9766" y1="132.1367" x2="-395.8575" y2="132.1367" gradientTransform="matrix(1 0 0 1 461.3208 -107.0767)">
			<stop  offset="0" style="stop-color:#F7513F"/>
			<stop  offset="0.131" style="stop-color:#D6473E"/>
			<stop  offset="1" style="stop-color:#000439"/>
		</linearGradient>
		<polygon class="st2" points="17.5,50.1 15.3,48 63.3,0 65.5,2.1 		"/>
		
			<linearGradient id="SVGID_4_" gradientUnits="userSpaceOnUse" x1="-443.9336" y1="134.1802" x2="-393.8135" y2="134.1802" gradientTransform="matrix(1 0 0 1 461.3208 -107.0767)">
			<stop  offset="0" style="stop-color:#FFCF0A"/>
			<stop  offset="0.1582" style="stop-color:#D6AF12"/>
			<stop  offset="1" style="stop-color:#000439"/>
		</linearGradient>
		<polygon class="st3" points="19.5,52.2 17.4,50 65.4,2 67.5,4.2 		"/>
	</g>
	<path class="st4" d="M21.9,54.1c-0.5-0.6-0.3-1,0.4-1.1l16-0.7c0.7,0,0.7-0.1,0-0.1l-16-0.7c-0.7,0-0.9-0.5-0.4-1.1l5.3-5.8
		c0.5-0.6,0.5-0.6-0.1-0.1l-5.8,5.3c-0.6,0.5-1,0.3-1.1-0.4l-0.7-16c0-0.8-0.1-0.8-0.1,0l-0.7,16c0,0.7-0.5,0.9-1.1,0.4l-5.8-5.3
		c-0.6-0.5-0.6-0.5-0.1,0.1l5.3,5.8c0.5,0.6,0.3,1-0.4,1.1l-16,0.7c-0.8,0-0.8,0.1,0,0.1l16,0.7c0.7,0,0.9,0.5,0.4,1.1l-5.3,5.8
		c-0.5,0.6-0.5,0.6,0.1,0.1l5.8-5.3c0.6-0.5,1-0.3,1.1,0.4l0.7,16c0,0.7,0.1,0.7,0.1,0l0.7-16c0-0.8,0.5-0.9,1.1-0.4l5.8,5.3
		c0.6,0.5,0.6,0.5,0.1-0.1L21.9,54.1z"/>
</g>
</svg>
