<?xml version="1.0" encoding="utf-8"?>
<!-- Generator: Adobe Illustrator 21.0.0, SVG Export Plug-In . SVG Version: 6.00 Build 0)  -->
<svg version="1.1" id="Layer_1" xmlns="http://www.w3.org/2000/svg" xmlns:xlink="http://www.w3.org/1999/xlink" x="0px" y="0px"
	 viewBox="0 0 144.6 256" style="enable-background:new 0 0 144.6 256;" xml:space="preserve">
<style type="text/css">
	.st0{clip-path:url(#SVGID_2_);fill:#0745C0;}
	.st1{clip-path:url(#SVGID_4_);fill:#0972DB;}
	.st2{display:none;}
	.st3{display:inline;}
	.st4{clip-path:url(#SVGID_6_);fill:#00B4FF;}
	.st5{clip-path:url(#SVGID_8_);fill:#149FFF;}
	.st6{fill:#00B4FF;}
	.st7{fill:#99C5CA;}
	.st8{fill:#366469;}
	.st9{fill:#FFFFFF;}
	.st10{fill:#6F9BA1;}
	.st11{clip-path:url(#SVGID_10_);fill:#F7513F;}
	.st12{clip-path:url(#SVGID_12_);fill:#F9CF0A;}
	.st13{clip-path:url(#SVGID_14_);fill:#8AE708;}
	.st14{clip-path:url(#SVGID_16_);fill:#149FFF;}
	.st15{display:inline;fill:#99C5CA;}
	.st16{fill:#9AC6CB;}
	.st17{fill:#343761;}
	.st18{fill:#0972DB;}
	.st19{fill:#54599C;}
	.st20{fill:#0745C0;}
</style>
<g>
	<g>
		<g>
			<g>
				<g>
					<defs>
						<path id="SVGID_1_" d="M22.9,91.7c10,9.2,25.6,8.4,34.9-1.8c0.4-0.5,0.8-0.9,1.2-1.4l8.8,6.3c-0.2,6.8-2.8,13.6-7.9,19.1
							c-11,12-29.4,12.9-41.2,2.1c-11-10.1-12.2-26.9-3.4-38.8C16.1,82.6,18.6,87.7,22.9,91.7z"/>
					</defs>
					<clipPath id="SVGID_2_">
						<use xlink:href="#SVGID_1_"  style="overflow:visible;"/>
					</clipPath>
					<path class="st0" d="M22.9,91.7c10,9.2,25.6,8.4,34.9-1.8c0.4-0.5,0.8-0.9,1.2-1.4l8.8,6.3c-0.2,6.8-2.8,13.6-7.9,19.1
						c-11,12-29.4,12.9-41.2,2.1c-11-10.1-12.2-26.9-3.4-38.8C16.1,82.6,18.6,87.7,22.9,91.7z"/>
				</g>
			</g>
			<g>
				<g>
					<defs>
						<path id="SVGID_3_" d="M26.8,87c5.1,12.5,19.6,18.4,32.4,13.2c0.6-0.2,1.1-0.5,1.7-0.8l5.3,9.5C63,115,57.8,120,50.9,122.9
							c-15.1,6.2-32.2-0.8-38.2-15.6C7,93.5,13,77.8,26.1,70.7C24.5,75.9,24.6,81.6,26.8,87z"/>
					</defs>
					<clipPath id="SVGID_4_">
						<use xlink:href="#SVGID_3_"  style="overflow:visible;"/>
					</clipPath>
					<path class="st1" d="M70.3,79c-1.5-15-23.5-19.1-38.5-12.2c-15,6.9-21.9,23.6-15.6,37.2c6.4,13.6,22.6,19.5,37.6,12.5
						C68.8,109.6,72,93.6,70.3,79z"/>
				</g>
			</g>
			<g class="st2">
				<g class="st3">
					<defs>
						<path id="SVGID_5_" d="M29.7,85.3c1.9,13.4,14.5,22.6,28.2,20.7c0.6-0.1,1.2-0.2,1.8-0.3l2.8,10.5c-4.5,5.1-10.8,8.8-18.2,9.8
							c-16.1,2.3-31-8.6-33.3-24.4C9,86.8,18.7,73,33.1,69.3C30.2,73.9,28.9,79.5,29.7,85.3z"/>
					</defs>
					<use xlink:href="#SVGID_5_"  style="overflow:visible;fill:#00B4FF;"/>
					<clipPath id="SVGID_6_">
						<use xlink:href="#SVGID_5_"  style="overflow:visible;"/>
					</clipPath>
					<path class="st4" d="M73.4,86.9c0.4-14-15.6-23.3-30.3-21.2c-14.8,2.1-25.1,15.1-23.1,28.8s15.7,24.1,30.2,20.8
						C64.8,112.2,72.9,101.6,73.4,86.9z"/>
				</g>
			</g>
			<g>
				<g>
					<defs>
						<path id="SVGID_7_" d="M29.5,84.7c3.1,13.2,16.5,21.2,29.9,18.1c0.6-0.1,1.2-0.3,1.8-0.5l3.7,10.2c-4,5.5-10,9.7-17.2,11.4
							c-15.9,3.8-31.6-5.8-35.3-21.3c-3.4-14.5,5-29.1,19-34C28.9,73.4,28.1,79,29.5,84.7z"/>
					</defs>
					<clipPath id="SVGID_8_">
						<use xlink:href="#SVGID_7_"  style="overflow:visible;"/>
					</clipPath>
					<path class="st5" d="M74.2,78.1c-3-12.8-16.4-20.6-29.8-17.4s-21.9,16.2-18.8,29s15.2,21.6,29.8,17.4
						C68.6,103.3,77.2,90.9,74.2,78.1z"/>
				</g>
			</g>
		</g>
		<g id="Tail" class="st2">
			<path class="st6" d="M42.6,114.8c0,0-23.7,10-34.6-8c-9.1-15.1,2.8-33.2,2.8-33.2s-0.7,15.3,2.7,16.6c0,0-1.3-14.1,6.1-23.9
				c0,0-1.3,33.2,17.6,28.6C56.1,90.1,42.6,114.8,42.6,114.8z"/>
		</g>
		<path class="st7" d="M69.7,78c-20.9,0-37.9,20.4-37.9,45.6V256h20.3V151c0-11.7,7.8-21.1,17.5-21.1c9.7,0,17.5,9.4,17.5,21.1
			v104.9h20.3V123.5C107.6,98.4,90.6,78,69.7,78z"/>
		<path class="st8" d="M112.6,172.6c-14.8,9.8-25.4,8-25.4,8s0-22.4,0-31.6c0-1.1-0.4-2.8-0.9-4.4c-0.4-1.2,0.9-4.7,0.9-4.7
			l25.7-5.6C113,134.1,124.1,165,112.6,172.6z"/>
		<path class="st8" d="M65.9,180.6c-12.5,0-34.1-17.8-34.1-39.7s10.2-39.7,22.7-39.7"/>
		<path class="st9" d="M85,78c-20.9,0-37.9,20.4-37.9,45.6V256h20.3V151c0-11.7,7.9-21.1,17.5-21.1c9.7,0,17.5,9.4,17.5,21.1v104.9
			h20.3V123.5C123,98.4,106,78,85,78z"/>
		<path class="st9" d="M81.8,80.4C78,78.8,74,78,69.8,78C48.9,78,32,98.5,32,123.6V142c8.7,1.2,15.5,10.1,15.5,20.9V256h20.3V123.5
			L81.8,80.4z"/>
		<path class="st10" d="M85,129.9c9.7,0,17.5,9.4,17.5,21.1v6.3c7.7-2.9,14.6-7.4,20.3-13.1v-20.7c0-25.2-16.9-45.6-37.9-45.6"/>
		<g class="st2">
			<g class="st3">
				<g>
					<defs>
						<path id="SVGID_9_" d="M68.7,82.4c0-16.8,13.8-30.4,31-30.4c0.8,0,1.5,0,2.3,0.1l1.6-13.4c-6.4-5.5-14.8-8.8-24-8.8
							c-20.2,0-36.6,16-36.6,35.9c0,18.5,14.3,33.7,32.7,35.7C71.3,96.2,68.7,89.6,68.7,82.4z"/>
					</defs>
					<clipPath id="SVGID_10_">
						<use xlink:href="#SVGID_9_"  style="overflow:visible;"/>
					</clipPath>
					<path class="st11" d="M68.7,82.4c0-16.8,13.8-30.4,31-30.4c0.8,0,1.5,0,2.3,0.1l1.6-13.4c-6.4-5.5-14.8-8.8-24-8.8
						c-20.2,0-36.6,16-36.6,35.9c0,18.5,14.3,33.7,32.7,35.7C71.3,96.2,68.7,89.6,68.7,82.4z"/>
				</g>
			</g>
			<g class="st3">
				<g>
					<defs>
						<path id="SVGID_11_" d="M68.7,82.4c0-16.8,13.8-30.4,31-30.4c0.8,0,1.5,0,2.3,0.1l1.6-13.4c-6.4-5.5-14.8-8.8-24-8.8
							c-20.2,0-36.6,16-36.6,35.9c0,18.5,14.3,33.7,32.7,35.7C71.3,96.2,68.7,89.6,68.7,82.4z"/>
					</defs>
					<clipPath id="SVGID_12_">
						<use xlink:href="#SVGID_11_"  style="overflow:visible;"/>
					</clipPath>
					<path class="st12" d="M122.5,71.1c5.2,17.9-18.1,33-38.6,32c-20.4-0.9-36.3-16.8-35.5-35.4c0.9-18.7,16.8-33,37.3-32
						C106.3,36.7,117.5,53.6,122.5,71.1z"/>
				</g>
			</g>
			<g class="st3">
				<g>
					<defs>
						<path id="SVGID_13_" d="M68.7,82.4c0-16.8,13.8-30.4,31-30.4c0.8,0,1.5,0,2.3,0.1l1.6-13.4c-6.4-5.5-14.8-8.8-24-8.8
							c-20.2,0-36.6,16-36.6,35.9c0,18.5,14.3,33.7,32.7,35.7C71.3,96.2,68.7,89.6,68.7,82.4z"/>
					</defs>
					<clipPath id="SVGID_14_">
						<use xlink:href="#SVGID_13_"  style="overflow:visible;"/>
					</clipPath>
					<path class="st13" d="M122.1,72.6c3,17.1-15,31.3-33.5,31.3c-18.5,0.1-33.6-14-33.6-31.3c0-17.3,15-32.4,33.5-31
						C107,43.1,118.9,54.6,122.1,72.6z"/>
				</g>
			</g>
			<g class="st3">
				<g>
					<defs>
						<path id="SVGID_15_" d="M68.7,82.4c0-16.8,13.8-30.4,31-30.4c0.8,0,1.5,0,2.3,0.1l1.6-13.4c-6.4-5.5-14.8-8.8-24-8.8
							c-20.2,0-36.6,16-36.6,35.9c0,18.5,14.3,33.7,32.7,35.7C71.3,96.2,68.7,89.6,68.7,82.4z"/>
					</defs>
					<clipPath id="SVGID_16_">
						<use xlink:href="#SVGID_15_"  style="overflow:visible;"/>
					</clipPath>
					<path class="st14" d="M124.6,77.5c0,16.3-13.9,29.6-31.1,29.6S62.5,93.9,62.5,77.5S74.7,47.1,93.6,48
						C110.7,48.8,124.6,61.2,124.6,77.5z"/>
				</g>
			</g>
			<path class="st15" d="M75.6,101.4c0,0-10.8-35.6,26.4-49.3C92.9,46.5,65,55.7,64.3,75C63.6,94.1,69.7,98.5,75.6,101.4z"/>
		</g>
		<rect x="102.7" y="240.8" class="st10" width="20.3" height="15.2"/>
		<rect x="87.1" y="240.8" class="st8" width="15.4" height="15.2"/>
		<rect x="47.3" y="240.8" class="st10" width="20.3" height="15.2"/>
		<rect x="31.9" y="240.8" class="st8" width="15.4" height="15.2"/>
	</g>
</g>
<g>
	<path class="st9" d="M112,37.2l3.1-19.4c-5.3,4.9-11.5,11.5-15.6,19.4H61.8c-4.1-7.9-10.3-14.6-15.6-19.4L57,85.1c0,0,0,0,0-0.1
		l6.2,38.7c-2.2,1.9-3.6,4.8-3.6,8c0,4.4,2.7,8.1,6.4,9.7c2.5,5.7,8.2,9.7,14.7,9.7c6.5,0,12.1-4,14.7-9.7c3.8-1.5,6.4-5.3,6.4-9.7
		c0-3.2-1.4-6-3.6-8L112,37.2L112,37.2z"/>
	<path class="st16" d="M87.1,138.4c-0.1,7-3.2,10.7-5.3,12.6c6.1-0.4,11.2-4.2,13.6-9.6c3.8-1.5,6.4-5.3,6.4-9.7c0-3.2-1.4-6-3.6-8
		l9.8-61.3c-0.8-0.5-1.4-2.7-2.3-2.7c-10.3,0-18.7,16.9-18.7,39.4V138.4z"/>
	<path class="st17" d="M91.7,131.8c0,3.4,1,6.1,3.5,6.1c2.5,0,4.5-2.7,4.5-6.1c0-3.4-2-6.1-4.5-6.1
		C92.7,125.7,91.7,128.4,91.7,131.8z"/>
	<path class="st17" d="M61.6,131.8c0,3.4,2,6.1,4.5,6.1c2.5,0,3.5-2.7,3.5-6.1c0-3.4-1-6.1-3.5-6.1
		C63.6,125.7,61.6,128.4,61.6,131.8z"/>
	<path class="st6" d="M80.2,38.8"/>
	<path class="st6" d="M63.2,43.4c0,0-12.4-20.8,16-43.4c0,0-14.1,24.2-5.2,49.9C73.9,49.9,65.6,48.4,63.2,43.4z"/>
	<g>
		<path class="st18" d="M64.2,44.9C64.2,44.9,64.2,45,64.2,44.9C64.2,45,64.2,44.9,64.2,44.9z"/>
		<path class="st18" d="M63.8,44.5c0,0.1,0.1,0.1,0.1,0.2C63.9,44.6,63.9,44.5,63.8,44.5z"/>
		<path class="st18" d="M74.1,12.2c-2.9,9.5-5.1,23.4-0.2,37.7l0,0c2.4,0.5,5,0.8,7.8,0.8l2.4,0c4.6-0.4,6.3-1,6.3-1
			c-0.7-1.1-18.2-31,12.8-49.5c0.2-0.1,0.3-0.2,0.3-0.2S86.6,1.8,74.1,12.2z"/>
	</g>
	<g>
		<ellipse class="st19" cx="104.8" cy="65.1" rx="5.3" ry="5.4"/>
	</g>
	<path class="st17" d="M106.5,62c1.2,0,2.2,0.4,3.1,1c0.2,0.6,0.4,1.3,0.4,2c0,3-2.4,5.4-5.3,5.4c-1.2,0-2.2-0.4-3.1-1
		c-0.2-0.6-0.4-1.3-0.4-2C101.3,64.4,103.6,62,106.5,62z"/>
	<g>
		<g>
			<ellipse class="st9" cx="103.2" cy="63.7" rx="1.7" ry="1.7"/>
		</g>
		<g>
			<ellipse class="st9" cx="106.5" cy="67.4" rx="0.8" ry="0.8"/>
		</g>
	</g>
	<g>
		<ellipse class="st19" cx="56.3" cy="65.1" rx="5.3" ry="5.4"/>
	</g>
	<path class="st17" d="M58.1,62c1.2,0,2.2,0.4,3.1,1c0.2,0.6,0.4,1.3,0.4,2c0,3-2.4,5.4-5.3,5.4c-1.2,0-2.2-0.4-3.1-1
		c-0.2-0.6-0.4-1.3-0.4-2C52.9,64.4,55.2,62,58.1,62z"/>
	<g>
		<g>
			<ellipse class="st9" cx="54.8" cy="63.7" rx="1.7" ry="1.7"/>
		</g>
		<g>
			<ellipse class="st9" cx="58.1" cy="67.4" rx="0.8" ry="0.8"/>
		</g>
	</g>
	<g>
		<path class="st20" d="M74.9,50.1c0.3,0,0.5,0.1,0.8,0.1C75.4,50.2,75.2,50.2,74.9,50.1z"/>
		<path class="st20" d="M74,49.9c0.3,0.1,0.5,0.1,0.8,0.2C74.5,50,74.3,50,74,49.9z"/>
		<path class="st20" d="M76.8,50.4c0.2,0,0.5,0.1,0.7,0.1C77.3,50.5,77,50.5,76.8,50.4z"/>
		<path class="st20" d="M81.7,50.7c-0.3,0-0.7,0-1,0C81.1,50.7,81.4,50.7,81.7,50.7z"/>
		<path class="st20" d="M75.8,50.3c0.2,0,0.5,0.1,0.7,0.1C76.3,50.4,76.1,50.3,75.8,50.3z"/>
		<path class="st20" d="M80.5,50.7c-0.2,0-0.5,0-0.7,0C80,50.7,80.2,50.7,80.5,50.7z"/>
		<path class="st20" d="M81.7,50.7c0.5,0,0.9,0,1.4,0L81.7,50.7z"/>
		<path class="st20" d="M114.5,7.4c-14.7-0.9-22.7,4.6-28,12c-5.1,15,3.4,29.6,3.9,30.3c6.1-1.6,10.3-4.7,10.3-8.3
			c0-0.1,0-0.3,0-0.4C100.7,34.8,90,15.2,114.5,7.4z"/>
		<path class="st20" d="M86.6,50.4c-0.1,0-0.2,0-0.3,0C86.4,50.5,86.5,50.4,86.6,50.4z"/>
		<path class="st20" d="M78.5,50.6c-0.2,0-0.5,0-0.7-0.1C78,50.6,78.2,50.6,78.5,50.6z"/>
		<path class="st20" d="M79.4,50.7c-0.2,0-0.5,0-0.7,0C79,50.6,79.2,50.7,79.4,50.7z"/>
	</g>
	<path class="st16" d="M73.3,64.8l7-50.8l7,50.8c0,3.9-3.1,7.1-7,7.1C76.4,72,73.3,68.8,73.3,64.8z"/>
	<path class="st17" d="M80.3,72c3.9,0,7-3.2,7-7.1l-7-50.8V72z"/>
</g>
</svg>
